<?xml version="1.0" encoding="UTF-8" standalone="no"?>
<!-- Uploaded to: SVG Repo, www.svgrepo.com, Generator: SVG Repo Mixer Tools -->

<svg
   width="800px"
   height="800px"
   viewBox="0 0 24 24"
   fill="none"
   version="1.1"
   id="svg1"
   sodipodi:docname="web.svg"
   inkscape:version="1.3.2 (091e20e, 2023-11-25)"
   xmlns:inkscape="http://www.inkscape.org/namespaces/inkscape"
   xmlns:sodipodi="http://sodipodi.sourceforge.net/DTD/sodipodi-0.dtd"
   xmlns="http://www.w3.org/2000/svg"
   xmlns:svg="http://www.w3.org/2000/svg">
  <defs
     id="defs1" />
  <sodipodi:namedview
     id="namedview1"
     pagecolor="#ffffff"
     bordercolor="#000000"
     borderopacity="0.25"
     inkscape:showpageshadow="2"
     inkscape:pageopacity="0.0"
     inkscape:pagecheckerboard="0"
     inkscape:deskcolor="#d1d1d1"
     inkscape:zoom="0.41124549"
     inkscape:cx="488.75916"
     inkscape:cy="466.87442"
     inkscape:window-width="1248"
     inkscape:window-height="669"
     inkscape:window-x="127"
     inkscape:window-y="49"
     inkscape:window-maximized="0"
     inkscape:current-layer="svg1" />
  <path
     fill-rule="evenodd"
     clip-rule="evenodd"
     d="m 9.5577958,20.521457 c 0.2234124,0.420097 0.4471362,0.79864 0.6609922,1.134067 -2.272103,-0.512584 -4.2436652,-1.821857 -5.6079266,-3.620006 0.900388,-0.508676 2.0535985,-1.035981 3.4399728,-1.42182 0.3940294,1.55039 0.9499243,2.859922 1.5069616,3.907759 z M 11.27638,19.60193 c -0.483935,-0.910147 -0.968908,-2.046821 -1.3183217,-3.393608 0.7521947,-0.112028 1.5551597,-0.176637 2.4068167,-0.176637 0.851528,0 1.654492,0.06461 2.406558,0.176505 -0.349414,1.346919 -0.834388,2.483593 -1.318321,3.39374 -0.387979,0.729861 -0.77453,1.312529 -1.088366,1.73888 -0.313837,-0.426351 -0.700388,-1.009019 -1.088366,-1.73888 z M 9.4432202,12.123797 c 0,0.760867 0.051029,1.483042 0.1410123,2.164839 0.8677585,-0.133519 1.7955055,-0.210896 2.7806425,-0.210896 0.985009,0 1.912755,0.07725 2.780383,0.210896 0.08998,-0.681926 0.141014,-1.403972 0.141014,-2.164839 0,-0.760866 -0.05103,-1.482914 -0.141014,-2.1648393 -0.867628,0.1335193 -1.795374,0.2108963 -2.780383,0.2108963 -0.985137,0 -1.912884,-0.07738 -2.7806425,-0.2108963 C 9.4942492,10.640753 9.4432202,11.362931 9.4432202,12.123797 Z M 7.6732692,9.5560542 C 7.5601605,10.362382 7.4955365,11.21899 7.4955365,12.123797 c 0,0.904806 0.064624,1.761414 0.1777327,2.567743 -1.6535833,0.445367 -3.0228829,1.073366 -4.0818775,1.677655 -0.6184024,-1.283741 -0.9650642,-2.723928 -0.9650642,-4.245398 0,-1.52147 0.3466618,-2.9616057 0.9650512,-4.2454247 1.0588778,0.6042114 2.4282033,1.2322611 4.0818905,1.6776819 z m 2.2847891,-1.516716 c 0.7521947,0.1119869 1.5551597,0.1765713 2.4068167,0.1765713 0.851528,0 1.654492,-0.064573 2.406558,-0.1765453 C 14.422019,6.6925499 13.937045,5.5558499 13.453112,4.645664 13.065133,3.915853 12.678582,3.3330829 12.364746,2.9068106 12.050909,3.3330829 11.664358,3.915853 11.27638,4.6456378 10.792445,5.5558239 10.307472,6.692524 9.9580583,8.0393382 Z m 7.0981377,1.5168464 c 0.11309,0.8063274 0.177759,1.6629354 0.177759,2.5676124 0,0.904806 -0.06468,1.761284 -0.177759,2.567612 1.653584,0.445498 3.022936,1.073497 4.081955,1.677786 0.618325,-1.28387 0.965013,-2.724058 0.965013,-4.245398 0,-1.52134 -0.346688,-2.9615665 -0.965013,-4.2453595 -1.058891,0.6042113 -2.428242,1.2322479 -4.081955,1.6777471 z m 3.062408,-3.344005 C 19.218123,6.7208953 18.064966,7.2481213 16.678734,7.6339991 16.284653,6.083558 15.728784,4.7739598 15.171747,3.7261642 14.948282,3.3060012 14.724559,2.9275613 14.510703,2.5920693 16.78287,3.1046929 18.754446,4.4140045 20.118604,6.2121796 Z M 8.0508211,7.63396 C 6.6645379,7.2480692 5.5113664,6.7208431 4.6108744,6.2121145 5.9751228,4.4139783 7.946685,3.1046929 10.218658,2.5920693 10.004932,2.9275613 9.7812082,3.3059881 9.557783,3.7261382 9.0007585,4.7739338 8.4448636,6.0835189 8.0508211,7.63396 Z m 8.6279129,8.979607 c -0.394081,1.550521 -0.94995,2.860053 -1.506987,3.90789 -0.223465,0.420097 -0.447188,0.79864 -0.661044,1.134067 2.272167,-0.512584 4.243743,-1.821986 5.608032,-3.620137 -0.900479,-0.508676 -2.053639,-1.03585 -3.440001,-1.42182 z m -4.313988,7.233891 c 6.454104,0 11.686102,-5.248814 11.686102,-11.723661 0,-6.4747961 -5.231998,-11.72366146 -11.686102,-11.72366146 -6.4540527,0 -11.68610217,5.24886536 -11.68610217,11.72366146 0,6.474847 5.23204947,11.723661 11.68610217,11.723661 z"
     fill="#080341"
     id="path1"
     style="fill:#6e70e6;fill-opacity:1;stroke-width:1.30054" />
</svg>
